<?xml version="1.0" encoding="utf-8"?>
<!-- Generator: Adobe Illustrator 26.2.1, SVG Export Plug-In . SVG Version: 6.00 Build 0)  -->
<svg version="1.1" id="Layer_1" xmlns="http://www.w3.org/2000/svg" xmlns:xlink="http://www.w3.org/1999/xlink" x="0px" y="0px"
	 viewBox="0 0 1366 768" style="enable-background:new 0 0 1366 768;" xml:space="preserve">
<style type="text/css">
	.st0{fill:#FFFFFF;}
</style>
<g>
	<path class="st0" d="M1152,729c-341.3,0-682.7,0-1024,0c0-223.7,0-447.3,0-671c341.3,0,682.7,0,1024,0
		C1152,281.7,1152,505.3,1152,729z M963.1,544.2c-1.8-1.1-3.4-1.8-4.6-2.9c-5.2-4.6-10.5-9.1-15.5-14c-1.1-1-1.8-3.5-1.3-4.8
		c2.6-7.7,4.7-15.8,8.7-22.7c7.4-12.4,16-24.1,24.3-35.9c7.8-11.1,14.8-22.5,18.8-35.6c0.5-1.7,1.9-3.1,2.9-4.7
		c1.9,1.2,4.7,2,5.5,3.7c3.6,7.2,10.2,11.5,15.6,16.9c4,4,6.9,8.1,7.6,13.6c0.7,4.8,1,9.6,1.4,14.4c0.7,6.9,0.3,14,5.2,19.9
		c0.7,0.9,0.5,2.8,0.1,4.1c-2.6,10.1-5.4,20.2-7.8,30.4c-1.5,6.5-2.4,13.2-3.7,20.4c5.1-0.5,6.9-3.3,7.6-6.9
		c2.3-10.7,4.5-21.5,6.7-32.2c0.3-1.2,0.8-2.4,1.5-4.5c9.3,11.2,16.1,22.4,15.8,37c2.7,0,4.8,0.2,7,0c12.2-1.3,23.7-5,34.9-10
		c6.2-2.8,6.7-3.9,4.6-11.9c-2.6,0.8-5.3,1.5-7.9,2.3c-11.1,3.5-23.8,2.7-27.1-11c-0.3-1.1-1.1-2.1-1.6-3.1
		c-8.3-15-12.3-31.2-13.1-48.2c-0.9-20.5,3.4-40.4,8.6-60c3.2-12.2,7-24.3,15.5-34.2c0.8-0.9,0.9-2.8,0.8-4.2
		c-2.1-22.2,2.2-43.7,7.4-65.1c5-20.7,9.4-41.5,14.1-62.2c0.8-3.3-0.6-7.6,3.7-9.5c0.2-0.1,0.3-1.5-0.1-1.8
		c-1.1-1.3-2.5-2.4-3.7-3.6c-0.9,1.1-2.4,2.1-2.7,3.4c-8.5,37.8-16.7,75.7-25.3,113.5c-3.3,14.7,0.6,15.7-16.5,8.1
		c-9.2-4.1-17.5-10.3-26.4-15.1c-3.1-1.7-4.3-3.4-3.9-7c1.4-11.7-1.3-22.8-6-33.5c-2.5-5.9-4.6-11.9-7-18c12-2.7,13.3-4.3,14.8-16.1
		c0.8-6.1,1-12.3,2.3-18.3c1.4-6.5,0-11.2-6.4-13.2c-6.2-1.9-12.1-4.8-19.1-4c-7,0.8-10.8,2.4-12.4,9.2c-1.3,5.8-1.8,11.9-1.4,17.8
		c0.4,7.4-2.6,12.8-7.5,17.7c-2.4,2.3-4.9,4.5-7.3,6.8c-2.9,2.9-4.2,6.3-4.3,10.6c-0.2,5.9-0.7,12.1-2.5,17.7
		c-6.9,20.4-8.4,40.8-4.2,61.9c2.3,11.5,1,23.2-4.8,34c-1.1,2-1.8,4.3-2.7,6.4c-2.4,5.5-1,9.8,3.4,13.8c2.2,2,3.9,5,4.7,7.8
		c4,14.4,0.1,26.7-10.7,36.7c-11.2,10.4-17.7,23-20.2,38c-1.9,11.4-3,23.1-9,33.5c-0.5,0.9,0.7,3.7,1.8,4.4
		c3.7,2.4,7.9,4.2,11.8,6.4c4.2,2.5,8.1,5.8,12.6,7.7c3,1.3,7,1.5,10.2,0.9C958.7,549,960.5,546.3,963.1,544.2z M694.1,278.2
		c2.1-0.8,3.8-1.5,5.5-2.1c4.7-1.6,9.6-2.9,14-5c3-1.5,6.3-3.7,5.2-8.1c-1.4-5.3-2.6-10.7-4.4-15.9c-2.9-8.2-7-15.6-15.9-18.6
		c-12.9-4.4-23,0-29.7,12c-6.5,11.8-13.1,23.5-20,35.1c-6.9,11.6-12.7,23.6-13.5,37.2c-0.9,15.2-0.4,30.6-1,45.9
		c-0.3,8.4-1.8,16.7-2.6,25.1c-0.2,1.6,0.2,3.6,1.1,4.9c4.4,6.7,8.7,13.5,9.5,21.7c0.6,6,0.3,12,1.2,17.9c1.9,13.1-2.7,23.5-12,32.2
		c-1,0.9-1.8,1.9-2.8,2.9c-6.4,6.8-10.1,14.7-11,24c-1.1,11-2.7,21.7-9.2,31.2c-2.1,3.1-3.1,7.4-3.4,11.3c-0.2,2,1.7,5.4,3.5,6.2
		c11.2,4.9,22.7,9.5,34.2,13.7c2,0.7,6.5-0.3,6.9-1.4c0.8-2.4,0.2-5.8-1-8.2c-1.1-2.2-3.8-3.7-5.9-5.2c-2.8-2.1-6-3.7-8.6-5.9
		c-8.5-7.3-7.5-9.5-3.2-16.8c13.3-22.4,26.5-45,39.7-67.5c0.4-0.6,1.1-1.1,1.7-1.5c9.1,5.3,11.9,11.9,8.2,23.7
		c-3.7,11.8-2.2,22.5,2.7,33.4c5.4,11.9,9.7,24.1,8,37.6c-0.1,1.1,2.8,3.7,4.4,3.7c13.4,0.3,26.9,0.3,40.3,0.2c1.5,0,3-1,5.6-1.9
		c-2.7-2.3-4.2-4.4-6.3-5.4c-3.6-1.7-7.4-2.9-11.3-3.8c-9-2.1-14.2-7.7-15.7-16.6c-0.8-4.8-1.6-9.6-1.7-14.4
		c-0.2-15.3,0.2-30.7-0.2-46c-0.2-7.6-1-15.3-2.3-22.8c-2-12-9.3-21.5-15.4-31.6c-2.8-4.6-5.2-9.9-5.8-15.1
		c-1.3-12,3.4-14.8,14.4-9.5c7.9,3.8,8.7,11.7,1.9,17.1c-1.3,1.1-2.7,2.1-4.1,3.1c0.1,0.5,0.2,0.9,0.3,1.4c2.5,0.2,5,0.6,7.6,0.7
		c5.1,0.2,10.4-0.4,15.4,0.4c9.2,1.4,10.5,1.1,14.2-7.3c1.4-3.2,3.1-4.6,6.9-5.2c6.5-0.9,12.9-3,20.5-5c-1.8-1.6-2.2-2.1-2.7-2.4
		c-5.6-3-11.2-1.1-16.5,0.4c-11.2,3-20.9,0.5-29-7.4c-5.8-5.7-11.1-12-16.3-18.2c-0.9-1-0.8-3.3-0.5-4.9c1.1-5.7,2.8-11.3,3.6-17
		C701.3,313,699.8,295.8,694.1,278.2z M902.6,534.5c-1.8-0.8-3.4-1.6-5.1-2.1c-5.4-1.5-11-2.7-16.4-4.4c-5-1.6-9.2-4.7-9.8-10.2
		c-0.8-7.1-1.3-14.3-0.8-21.4c0.8-12.3,3.1-24.5,3.8-36.7c1-16.9-4-33-8.6-48.9c-6.4-22.3-5.9-43.5,9.3-62.4
		c7.1-8.9,11.6-18.8,14-30c0.9-4.4,4.1-8.5,6.8-12.3c1.7-2.4,4.3-2.4,7.1-0.5c4.2,2.9,8.7,5.5,13.2,8c2.2,1.2,4.9,1.6,8.6,2.8
		c-3.4-7.5-8.5-10.9-13.7-14.2c-5.3-3.4-12.5-6-15.1-10.9c-4.8-9.3-11.4-9.3-19.7-8.3c-5.6,0.7-10.2-1.8-12.7-7
		c-0.7-1.5-0.2-3.9,0.6-5.5c3.7-7.2,8.3-14,11.5-21.4c2.5-5.8,2.2-11.8-2.9-17.1c-8.8-9.1-23.1-12.2-35-6.9
		c-10,4.4-13.8,11.1-12.5,22.1c0.2,1.3,0.4,2.6,0.4,4c0,4.2-1.5,5.3-5.1,3.5c-7-3.4-13.9-7.2-20.8-10.8c-7.1-3.7-14-7.7-21.2-11
		c-5-2.4-10.5-3.4-17.3-1.9c21.7,12.7,45.8,19.1,61.8,37c-2.5,7.4-6.3,14-6.8,20.8c-1.1,15.2-1,30.5-0.7,45.8
		c0.3,17.6,2.6,35.3-3.3,52.5c-0.4,1.1-0.2,2.8,0.4,3.7c4.5,7,4.7,14.6,3.9,22.6c-1,9.9-1.4,19.9-2.2,29.8c-0.1,1.5-0.7,3.3-1.7,4.4
		c-10.3,11.7-20.8,23.3-31.1,35c-6.9,7.9-13.5,15.9-20.5,24.1c8.5,13.9,15.7,29.3,34,33.8c2.2-4.3,0.4-7.5-1.3-10.7
		c-2.3-4.4-4.8-8.8-6.8-13.3c-1.8-4-1.4-7.7,1.9-11c10.4-10.3,20.7-20.7,31.2-30.9c8.4-8.2,17.1-16.2,26.3-24.9
		c0.5,2.5,1.3,4.4,1,6.1c-1.1,7.4-2.7,14.7-3.8,22.1c-0.4,2.7-0.6,5.9,0.5,8.2c8,17.2,11.4,35.4,11.3,54.3c0,4,1.7,5.9,5.2,5.5
		c5.4-0.6,10.9-1.4,16.1-2.9c2.7-0.8,4.7-1.4,7.4,0C890.2,546,901.3,542.6,902.6,534.5z M502.9,540.7c0.4-0.6,0.8-1.2,1.1-1.8
		c-2.7-2.8-5.4-5.5-8-8.4c-2.4-2.7-5-5.3-6.9-8.3c-0.7-1.1-0.3-3.8,0.6-4.8c7.8-9.3,15.5-18.7,23.8-27.5
		c5.3-5.6,11.5-10.1,17.3-15.2c0.5,0.4,1.1,0.7,1.7,1c0,3.9-0.3,7.9,0.1,11.8c1.5,15,3.2,30.1,5.1,45.1c0.3,2,1.5,5,3.1,5.7
		c11.7,4.7,24,5,36.3,3c3.2-0.5,2.9-2.7,1.3-4.3c-1.4-1.4-3.6-2.3-5.6-2.8c-2.6-0.6-5.3-0.5-8-0.7c-8.8-0.8-10.8-2.6-10.9-11.4
		c-0.1-10.2,0.5-20.3,0.6-30.5c0.3-24.9,0.3-24.9-15.2-44.6c-0.9-1.2-1.9-2.4-2.7-3.6c-5.2-7.2-10-14.6-11.3-23.6
		c-1.1-7.1,1.5-12.9,7.4-17.8c18.3,14.4,28.1,32.8,28.5,56.3c10.3-6.4,14.2-14.3,11.2-25c-2.5-8.7-6.2-17.2-10.1-25.4
		c-4.7-9.9-10.5-19.3-15.3-29.2c-1.2-2.5-1.1-6.1-0.6-9c1.5-8.8,3.8-17.5,5.4-26.3c1.2-6.8,1.9-13.6,2.9-20.5
		c3.3,0.7,5.8,1.4,8.2,1.7c8.7,1.1,17.1,0,23.8-6.1c1.4-1.2,2.3-4.1,2-6c-1.8-11.9-7.8-22.2-14.1-32.2c-0.8-1.2-2.5-2.1-4-2.4
		c-10.7-1.9-20.2,0.1-27.5,8.9c-6.1,7.4-14.2,11.8-22.6,16c-3.7,1.9-7.3,4.7-10,7.9c-11.7,14.5-17,31.9-20.8,49.7
		c-4,18.9-7.2,37.9-10.5,56.9c-0.4,2.1,0.6,4.9,2,6.7c9.3,12.4,17.7,25.4,24.1,39.6c1.5,3.3,1.3,5.5-1.6,8.2
		c-11.8,10.8-20.9,23.7-28.2,37.8c-2.4,4.6-7.8,9-4.5,14.7c2.7,4.7,6.6,8.8,10.8,12.4C488,541.8,495.5,541.5,502.9,540.7z
		 M385.7,482.2c3.1,6.1,5.8,12,9.1,17.5c4.5,7.6,6.3,15.7,4.8,24.4c-0.5,2.9-1.7,5.8-1.8,8.8c-0.1,2.3,1,4.6,1.6,7
		c2.2-0.7,4.9-1,6.7-2.3c6.2-4.6,7.7-11.5,7.7-18.7c0-16.6-2.6-32.8-7.1-48.8c-3.1-11.1-5.3-22.4-3.9-34c0.8-6.6,3-13.1,8.4-17
		c2.8-2.1,7.9-1.1,11.9-1.8c4.5-0.8,9.1-1.6,13.5-3c3.2-1,4.7-3.5,3.1-7.1c-2.2-5.2-4.7-10.4-6.1-15.8c-1.5-5.8-5.3-7-10.2-7.6
		c-11.1-1.4-21.9-0.2-32.5,3.3c-30.1,9.8-54.3,27.1-70.3,55c-5.4,9.4-8.7,18.8-0.3,28.3c0.5,0.6,0.9,1.4,1.2,2.2
		c7,15.3,7.9,13.6-4.6,25.1c-6.9,6.3-14.3,11.9-21.6,17.7c-3.4,2.7-3.9,6.2-2.9,9.8c1,3.6,2.3,7.4,4.2,10.6c5.6,9,17.7,11.4,26,4.8
		c-2.2-1.2-4.5-1.9-6.1-3.3c-2.9-2.5-5.7-5.3-8-8.4c-0.6-0.8,0.1-3.8,1.1-4.6c10.6-7.5,21.3-14.7,32.1-21.9c3.1-2,6.4-3.7,9.2-5.2
		c1.4,13.7,2.7,26.8,4.3,39.8c0.2,1.4,1.6,3.7,2.7,3.9c7.7,1.4,15.4,2.8,23.2,3.4c2.9,0.2,6.4-0.8,8.9-2.4c4.4-2.7,4-5.3-0.6-7.4
		c-3-1.4-6.3-2.1-9.4-3.4c-4.7-2-6.2-5.3-5.2-10c1.6-8.3,3-16.6,4.4-25C379.9,490.6,381.5,485.6,385.7,482.2z M183.8,435.7
		c0.3,2.6,0.9,4.5,0.7,6.2c-0.8,6.9-1.7,13.8-2.7,20.7c-2.8,19.8-1.2,25.3,14.9,32.1c2.3,1,4.3,2.5,6.3,4c3.1,2.3,4.3,5.3,1.4,8.4
		c-3.7,4-7.4,8-11.6,11.4c-5.4,4.4-11.2,8.3-13.9,15.2c-1.3,3.2-0.8,6.2,1.6,7.5c4,2.4,8.6,4,13.1,5.3c1.3,0.4,3.5-1.1,4.6-2.3
		c0.4-0.4-0.9-2.8-1.8-4c-3.9-4.9-2.7-7.7,3.2-9.7c4-1.3,8.1-3.3,11.1-6c3.9-3.5,7.1-3.9,9.9,0.7c1.5,2.5,2.3,5.5,3.4,8.3
		c2.3,6,6.6,8.4,12,6.5c3.1-1.1,6.3-2.2,9.3-3.4c1.7-0.7,3.2-1.8,4.8-2.7c-0.1-0.7-0.2-1.4-0.2-2.1c-3.8-0.3-7.5-0.7-11.3-0.9
		c-4.4-0.2-7.5-1.4-7-6.7c0.2-1.9-0.4-4-0.8-5.9c-1.8-9-4.3-17.9-5.2-26.9c-0.6-5.9-2.8-9.4-7.9-12c-8.6-4.4-9.8-7.9-7.3-17.4
		c2.4-9.5,9.1-15.5,15.9-21.7c6-5.4,11.6-11.3,16.7-17.6c3.9-4.9,6.1-5.9,11.5-2.1c2.8,1.9,5.5,3.8,8.5,5.9c1.6-7,0.7-8.8-4.6-11.2
		c-1.5-0.7-3.1-1.1-4.6-1.9c-7.5-3.9-11-3.3-16.9,2.9c-2.3,2.4-4.3,5.1-6.7,7.4c-3.1,3-6.8,3.1-10,0.6c-3.2-2.5-3.8-6.3-2.1-9.9
		c1.2-2.5,3.5-4.6,4.4-7.2c1.2-3.1,2.3-6.6,1.9-9.8c-0.5-4.2-7.7-8.7-12.2-8.5c-7.1,0.3-12.7,3.5-17.4,8.7
		c-4.1,4.6-7.8,9.6-12.2,13.8c-2.8,2.6-6.6,4.1-9.9,6.1c-1.6-11.4-3.1-21.5-4.4-31.7c-0.6-4.4-3.2-6.8-7.6-6.3
		c-8.6,1.1-11.4,5.6-9,15.9c1.1-1,2.3-1.7,2.8-2.7c1.7-3.2,4.4-5.6,7.5-3.5c1.8,1.2,3.1,5.5,2.4,7.7c-4,12.7-1.8,25,0.6,37.5
		c0.9,4.9,2.8,6.2,7.7,5C176.3,438.5,179.7,437.1,183.8,435.7z"/>
	<path d="M963.1,544.2c-2.5,2.1-4.4,4.8-6.6,5.2c-3.3,0.6-7.2,0.4-10.2-0.9c-4.5-1.9-8.3-5.2-12.6-7.7c-3.8-2.3-8-4-11.8-6.4
		c-1.2-0.7-2.3-3.5-1.8-4.4c6-10.4,7.1-22.1,9-33.5c2.5-15,9.1-27.6,20.2-38c10.8-10,14.7-22.4,10.7-36.7c-0.8-2.9-2.5-5.9-4.7-7.8
		c-4.5-4-5.8-8.3-3.4-13.8c0.9-2.1,1.6-4.4,2.7-6.4c5.8-10.7,7.1-22.4,4.8-34c-4.2-21.2-2.7-41.6,4.2-61.9
		c1.9-5.6,2.4-11.8,2.5-17.7c0.1-4.4,1.4-7.7,4.3-10.6c2.4-2.3,4.9-4.5,7.3-6.8c4.9-4.9,7.9-10.3,7.5-17.7c-0.3-5.9,0.2-12,1.4-17.8
		c1.5-6.9,5.4-8.5,12.4-9.2c7-0.8,12.9,2.1,19.1,4c6.4,2,7.8,6.7,6.4,13.2c-1.3,6-1.6,12.2-2.3,18.3c-1.5,11.8-2.8,13.4-14.8,16.1
		c2.3,6.1,4.4,12.1,7,18c4.6,10.7,7.3,21.8,6,33.5c-0.4,3.5,0.8,5.2,3.9,7c8.9,4.8,17.2,11,26.4,15.1c17.1,7.6,13.2,6.5,16.5-8.1
		c8.6-37.8,16.8-75.7,25.3-113.5c0.3-1.3,1.8-2.3,2.7-3.4c1.3,1.2,2.6,2.3,3.7,3.6c0.3,0.4,0.3,1.7,0.1,1.8c-4.4,2-3,6.2-3.7,9.5
		c-4.8,20.7-9.1,41.5-14.1,62.2c-5.2,21.4-9.6,42.9-7.4,65.1c0.1,1.4,0,3.2-0.8,4.2c-8.5,9.9-12.3,22-15.5,34.2
		c-5.2,19.7-9.5,39.5-8.6,60c0.8,17,4.8,33.2,13.1,48.2c0.6,1,1.4,2,1.6,3.1c3.3,13.7,15.9,14.5,27.1,11c2.6-0.8,5.2-1.5,7.9-2.3
		c2.1,8,1.7,9.1-4.6,11.9c-11.2,5-22.7,8.6-34.9,10c-2.1,0.2-4.3,0-7,0c0.3-14.5-6.5-25.8-15.8-37c-0.7,2.1-1.3,3.2-1.5,4.5
		c-2.3,10.7-4.4,21.5-6.7,32.2c-0.8,3.6-2.5,6.4-7.6,6.9c1.3-7.2,2.2-13.8,3.7-20.4c2.4-10.2,5.3-20.2,7.8-30.4
		c0.3-1.3,0.6-3.3-0.1-4.1c-4.8-5.9-4.5-13-5.2-19.9c-0.5-4.8-0.8-9.6-1.4-14.4c-0.8-5.5-3.7-9.6-7.6-13.6
		c-5.4-5.4-12-9.7-15.6-16.9c-0.9-1.7-3.6-2.5-5.5-3.7c-1,1.6-2.3,3-2.9,4.7c-3.9,13.1-11,24.5-18.8,35.6
		c-8.3,11.8-16.9,23.5-24.3,35.9c-4.1,6.9-6.1,15-8.7,22.7c-0.5,1.3,0.3,3.8,1.3,4.8c5,4.8,10.2,9.4,15.5,14
		C959.7,542.3,961.2,543,963.1,544.2z M1044.4,434.5c0.5-0.5,0.9-0.7,0.9-0.9c3.1-14.1,6.7-28.1,9.1-42.3c1.6-9.2,1.5-18.8,1.7-28.2
		c0.1-2-1.2-5.4-2.6-5.9c-9.7-3.4-19.6-6.1-29.4-9.1c-2.8-0.9-4.6,0.2-6.1,2.8c-6.1,10.8-7.2,21.9-3.4,33.6
		C1020.8,403.4,1034.5,417.8,1044.4,434.5z"/>
	<path d="M694.1,278.2c5.7,17.5,7.2,34.8,4.6,52.4c-0.8,5.7-2.5,11.3-3.6,17c-0.3,1.6-0.4,3.9,0.5,4.9c5.2,6.2,10.5,12.5,16.3,18.2
		c8.1,7.9,17.8,10.4,29,7.4c5.4-1.5,11-3.4,16.5-0.4c0.5,0.3,0.9,0.8,2.7,2.4c-7.6,1.9-13.9,4.1-20.5,5c-3.8,0.5-5.5,2-6.9,5.2
		c-3.7,8.4-5,8.7-14.2,7.3c-5-0.8-10.3-0.2-15.4-0.4c-2.5-0.1-5-0.4-7.6-0.7c-0.1-0.5-0.2-0.9-0.3-1.4c1.4-1,2.7-2.1,4.1-3.1
		c6.9-5.5,6-13.3-1.9-17.1c-11-5.3-15.7-2.5-14.4,9.5c0.6,5.2,3.1,10.5,5.8,15.1c6.1,10.1,13.4,19.6,15.4,31.6
		c1.2,7.5,2.1,15.2,2.3,22.8c0.3,15.3,0,30.6,0.2,46c0.1,4.8,0.9,9.6,1.7,14.4c1.5,8.9,6.7,14.5,15.7,16.6c3.8,0.9,7.7,2.1,11.3,3.8
		c2.1,1,3.7,3,6.3,5.4c-2.7,0.9-4.1,1.9-5.6,1.9c-13.5,0.1-26.9,0.2-40.3-0.2c-1.6,0-4.6-2.6-4.4-3.7c1.7-13.5-2.7-25.7-8-37.6
		c-4.9-10.9-6.4-21.6-2.7-33.4c3.7-11.8,0.9-18.4-8.2-23.7c-0.5,0.5-1.3,0.9-1.7,1.5c-13.2,22.5-26.4,45-39.7,67.5
		c-4.3,7.3-5.3,9.5,3.2,16.8c2.6,2.3,5.8,3.8,8.6,5.9c2.1,1.6,4.8,3,5.9,5.2c1.2,2.4,1.8,5.8,1,8.2c-0.4,1.2-4.9,2.2-6.9,1.4
		c-11.5-4.2-23-8.8-34.2-13.7c-1.8-0.8-3.7-4.2-3.5-6.2c0.3-3.9,1.2-8.2,3.4-11.3c6.5-9.5,8.1-20.3,9.2-31.2c1-9.3,4.6-17.3,11-24
		c0.9-1,1.8-2,2.8-2.9c9.3-8.8,13.9-19.2,12-32.2c-0.9-5.9-0.6-12-1.2-17.9c-0.9-8.2-5.2-15-9.5-21.7c-0.9-1.3-1.2-3.3-1.1-4.9
		c0.8-8.4,2.2-16.7,2.6-25.1c0.6-15.3,0-30.6,1-45.9c0.8-13.5,6.6-25.6,13.5-37.2c6.9-11.5,13.5-23.3,20-35.1
		c6.7-12.1,16.8-16.4,29.7-12c8.9,3,13.1,10.4,15.9,18.6c1.8,5.2,3,10.5,4.4,15.9c1.1,4.4-2.2,6.6-5.2,8.1c-4.4,2.2-9.3,3.4-14,5
		C697.9,276.8,696.2,277.4,694.1,278.2z"/>
	<path d="M902.6,534.5c-1.2,8.1-12.4,11.5-18.5,8.3c-2.7-1.4-4.7-0.8-7.4,0c-5.2,1.5-10.7,2.3-16.1,2.9c-3.5,0.4-5.2-1.5-5.2-5.5
		c0.1-18.9-3.3-37-11.3-54.3c-1.1-2.3-0.9-5.5-0.5-8.2c1.1-7.4,2.7-14.7,3.8-22.1c0.3-1.8-0.6-3.7-1-6.1
		c-9.3,8.8-17.9,16.7-26.3,24.9c-10.5,10.2-20.8,20.6-31.2,30.9c-3.3,3.3-3.7,7-1.9,10.9c2.1,4.5,4.5,8.9,6.8,13.3
		c1.7,3.2,3.5,6.5,1.3,10.7c-18.3-4.5-25.5-19.8-34-33.8c6.9-8.2,13.6-16.2,20.5-24.1c10.3-11.7,20.8-23.3,31.1-35
		c1-1.1,1.5-2.9,1.7-4.4c0.8-9.9,1.2-19.9,2.2-29.8c0.8-8,0.6-15.6-3.9-22.6c-0.6-1-0.8-2.6-0.4-3.7c5.9-17.2,3.6-34.9,3.3-52.5
		c-0.3-15.3-0.4-30.6,0.7-45.8c0.5-6.8,4.3-13.4,6.8-20.8c-16-18-40.1-24.4-61.8-37.1c6.9-1.4,12.3-0.4,17.3,1.9
		c7.2,3.4,14.2,7.3,21.2,11c6.9,3.6,13.8,7.4,20.8,10.8c3.7,1.8,5.2,0.6,5.1-3.5c0-1.3-0.2-2.6-0.4-4c-1.2-11,2.5-17.6,12.5-22.1
		c11.9-5.3,26.1-2.1,35,6.9c5.2,5.3,5.4,11.2,2.9,17.1c-3.2,7.4-7.8,14.2-11.5,21.4c-0.8,1.6-1.3,4-0.6,5.5c2.4,5.2,7.1,7.7,12.7,7
		c8.3-1,14.9-1,19.7,8.3c2.6,4.9,9.8,7.6,15.1,10.9c5.3,3.3,10.3,6.7,13.7,14.2c-3.7-1.2-6.3-1.6-8.6-2.8c-4.5-2.4-9-5-13.2-8
		c-2.8-1.9-5.4-1.8-7.1,0.5c-2.7,3.8-5.9,7.9-6.8,12.3c-2.3,11.2-6.8,21.1-14,30c-15.2,19-15.7,40.1-9.3,62.4
		c4.6,16,9.6,32,8.6,48.9c-0.7,12.3-3,24.5-3.8,36.7c-0.5,7.1,0.1,14.3,0.8,21.4c0.6,5.5,4.8,8.7,9.8,10.2
		c5.4,1.7,10.9,2.9,16.4,4.4C899.2,532.9,900.8,533.8,902.6,534.5z M863.6,289.8c1.5,6,2.8,10.9,4.1,15.8c0.9,3.5,2.3,6.8,6.5,7.1
		c1.2,0.1,3.4-1.3,3.5-2.1c0.7-7,0.2-14-4.6-19.7C869.6,286.7,866.3,286.8,863.6,289.8z"/>
	<path d="M502.9,540.7c-7.4,0.8-14.9,1.1-21-4.2c-4.1-3.6-8.1-7.7-10.8-12.4c-3.3-5.7,2.1-10.1,4.5-14.7c7.3-14.1,16.4-27,28.2-37.8
		c2.9-2.6,3.1-4.8,1.6-8.2c-6.4-14.2-14.8-27.1-24.1-39.6c-1.3-1.8-2.3-4.6-2-6.7c3.2-19,6.4-38.1,10.5-56.9
		c3.8-17.8,9-35.2,20.8-49.7c2.6-3.2,6.2-6,9.9-7.9c8.4-4.2,16.5-8.6,22.6-16c7.3-8.8,16.8-10.8,27.5-8.9c1.5,0.3,3.2,1.2,4,2.4
		c6.3,10,12.3,20.3,14.1,32.2c0.3,1.9-0.6,4.7-2,6c-6.8,6.1-15.1,7.2-23.8,6.1c-2.5-0.3-4.9-1-8.2-1.7c-1,6.9-1.6,13.8-2.9,20.5
		c-1.6,8.8-3.8,17.5-5.4,26.3c-0.5,2.9-0.6,6.4,0.6,9c4.8,9.9,10.5,19.3,15.3,29.2c3.9,8.2,7.7,16.6,10.1,25.4
		c3,10.7-0.9,18.6-11.2,25c-0.3-23.5-10.2-42-28.5-56.3c-5.9,4.9-8.5,10.7-7.4,17.8c1.3,9,6.2,16.4,11.3,23.6
		c0.9,1.2,1.8,2.4,2.7,3.6c15.5,19.7,15.5,19.7,15.2,44.6c-0.1,10.2-0.7,20.3-0.6,30.5c0.1,8.8,2.1,10.6,10.9,11.4
		c2.7,0.2,5.4,0.1,8,0.7c2,0.5,4.2,1.4,5.6,2.8c1.6,1.5,1.9,3.8-1.3,4.3c-12.4,2-24.6,1.7-36.3-3c-1.6-0.6-2.8-3.6-3.1-5.7
		c-1.9-15-3.6-30-5.1-45.1c-0.4-3.9-0.1-7.9-0.1-11.8c-0.5-0.4-1.1-0.7-1.7-1c-5.8,5-12.1,9.6-17.3,15.2c-8.3,8.8-16,18.2-23.8,27.5
		c-0.9,1.1-1.3,3.8-0.6,4.8c1.9,3,4.5,5.7,6.9,8.3c2.6,2.9,5.3,5.6,8,8.4C503.6,539.5,503.2,540.1,502.9,540.7z"/>
	<path d="M385.7,482.2c-4.2,3.4-5.8,8.4-6.7,13.7c-1.4,8.3-2.8,16.7-4.4,25c-0.9,4.7,0.6,8,5.2,10c3,1.3,6.4,2,9.4,3.4
		c4.7,2.1,5,4.7,0.6,7.4c-2.5,1.6-6,2.7-8.9,2.4c-7.8-0.6-15.5-2-23.2-3.4c-1.1-0.2-2.5-2.4-2.7-3.9c-1.5-13-2.8-26.1-4.3-39.8
		c-2.7,1.6-6.1,3.2-9.2,5.2c-10.8,7.2-21.5,14.4-32.1,21.9c-1,0.7-1.7,3.7-1.1,4.6c2.3,3.1,5.1,5.9,8,8.4c1.6,1.4,3.9,2.2,6.1,3.3
		c-8.4,6.6-20.5,4.2-26-4.8c-2-3.2-3.2-6.9-4.2-10.6c-1-3.7-0.5-7.2,2.9-9.8c7.3-5.8,14.8-11.4,21.6-17.7
		c12.5-11.4,11.6-9.7,4.6-25.1c-0.3-0.8-0.7-1.6-1.2-2.2c-8.4-9.5-5.1-19,0.3-28.3c16-27.8,40.1-45.2,70.3-55
		c10.6-3.4,21.4-4.6,32.5-3.3c4.9,0.6,8.8,1.8,10.2,7.6c1.4,5.4,3.9,10.6,6.1,15.8c1.5,3.6,0.1,6.1-3.1,7.1c-4.4,1.4-8.9,2.2-13.5,3
		c-4,0.7-9-0.3-11.9,1.8c-5.3,3.9-7.6,10.4-8.4,17c-1.4,11.6,0.8,22.9,3.9,34c4.5,16,7.1,32.2,7.1,48.8c0,7.2-1.5,14.1-7.7,18.7
		c-1.8,1.3-4.4,1.6-6.7,2.3c-0.6-2.3-1.7-4.7-1.6-7c0.1-2.9,1.3-5.8,1.8-8.8c1.5-8.7-0.2-16.8-4.8-24.4
		C391.5,494.2,388.8,488.3,385.7,482.2z M358.9,458.5c-1.4,9.5,1.4,13.2,8.5,11.9C368.8,461.7,366.5,458.4,358.9,458.5z"/>
	<path d="M183.8,435.7c-4.1,1.4-7.5,2.7-11,3.6c-4.9,1.2-6.8-0.1-7.7-5c-2.4-12.5-4.6-24.8-0.6-37.5c0.7-2.2-0.6-6.4-2.4-7.7
		c-3.1-2.1-5.8,0.3-7.5,3.5c-0.5,1-1.7,1.6-2.8,2.7c-2.4-10.2,0.4-14.7,9-15.9c4.4-0.6,7.1,1.9,7.6,6.3c1.3,10.2,2.8,20.3,4.4,31.7
		c3.3-2,7.1-3.5,9.9-6.1c4.4-4.2,8.1-9.2,12.2-13.8c4.6-5.2,10.3-8.4,17.4-8.7c4.5-0.2,11.7,4.3,12.2,8.5c0.4,3.2-0.7,6.7-1.9,9.8
		c-1,2.6-3.2,4.6-4.4,7.2c-1.7,3.7-1.2,7.4,2.1,9.9c3.2,2.5,6.9,2.4,10-0.6c2.4-2.3,4.4-5,6.7-7.4c5.9-6.3,9.4-6.8,16.9-2.9
		c1.5,0.8,3.1,1.2,4.6,1.9c5.3,2.3,6.2,4.1,4.6,11.2c-3-2.1-5.8-4-8.5-5.9c-5.4-3.7-7.6-2.8-11.5,2.1c-5,6.3-10.7,12.2-16.7,17.6
		c-6.8,6.2-13.5,12.2-15.9,21.7c-2.4,9.5-1.3,13,7.3,17.4c5.1,2.6,7.3,6.1,7.9,12c0.9,9,3.4,17.9,5.2,26.9c0.4,2,0.9,4,0.8,5.9
		c-0.4,5.3,2.6,6.5,7,6.7c3.8,0.2,7.5,0.6,11.3,0.9c0.1,0.7,0.2,1.4,0.2,2.1c-1.6,0.9-3.1,2-4.8,2.7c-3.1,1.3-6.2,2.3-9.3,3.4
		c-5.4,1.9-9.7-0.4-12-6.5c-1.1-2.8-1.9-5.7-3.4-8.3c-2.8-4.6-5.9-4.2-9.9-0.7c-3.1,2.7-7.2,4.7-11.1,6c-5.9,2-7.1,4.8-3.2,9.7
		c0.9,1.2,2.2,3.6,1.8,4c-1.1,1.2-3.3,2.7-4.6,2.3c-4.5-1.3-9.1-2.9-13.1-5.3c-2.4-1.4-2.9-4.3-1.6-7.5c2.8-6.9,8.5-10.8,13.9-15.2
		c4.2-3.4,8-7.4,11.6-11.4c2.9-3.1,1.7-6.1-1.4-8.4c-2-1.5-4-3-6.3-4c-16.1-6.8-17.6-12.3-14.9-32.1c1-6.9,1.9-13.8,2.7-20.7
		C184.8,440.2,184.2,438.4,183.8,435.7z"/>
	<path class="st0" d="M1044.4,434.5c-9.9-16.7-23.6-31-29.8-49.9c-3.8-11.7-2.7-22.9,3.4-33.6c1.5-2.6,3.2-3.6,6.1-2.8
		c9.8,3,19.8,5.7,29.4,9.1c1.4,0.5,2.7,3.9,2.6,5.9c-0.2,9.4-0.2,19-1.7,28.2c-2.4,14.2-6,28.2-9.1,42.3
		C1045.3,433.8,1044.9,434,1044.4,434.5z"/>
	<path class="st0" d="M863.6,289.8c2.7-3.1,6-3.1,9.4,1c4.8,5.7,5.3,12.7,4.6,19.7c-0.1,0.9-2.3,2.2-3.5,2.1
		c-4.2-0.3-5.6-3.6-6.5-7.1C866.4,300.7,865.2,295.8,863.6,289.8z"/>
	<path class="st0" d="M358.9,458.5c7.6-0.1,9.9,3.1,8.5,11.9C360.2,471.8,357.5,468,358.9,458.5z"/>
</g>
</svg>
