<?xml version="1.0" encoding="utf-8"?>
<!-- Generator: Adobe Illustrator 26.2.1, SVG Export Plug-In . SVG Version: 6.00 Build 0)  -->
<svg version="1.1" id="Layer_1" xmlns="http://www.w3.org/2000/svg" xmlns:xlink="http://www.w3.org/1999/xlink" x="0px" y="0px"
	 viewBox="0 0 1366 768" style="enable-background:new 0 0 1366 768;" xml:space="preserve">
<style type="text/css">
	.st0{fill:#030303;}
</style>
<g>
	<path class="st0" d="M730.8,517.7c-3,3.5-8.8,4.7-12.2,2.2c-1.8-1.4-2.6-3.6-2.6-5.9c0-2.8-1.3-5.1-2.4-7.5
		c-1.7-3.8-2.7-7.8-4.3-12.4c-3.1,3.4-2.1,7-1.7,10.1c0.3,2.5,0.2,5.4,2.6,7.4c1.3,1-0.1,1.9-0.8,2.6c-2.1,2.4-5.1,2.8-8,3.3
		c-2.4,0.5-4.2,1.6-6,3.2c-4.2,3.6-9.2,4.5-14.5,3.5c-0.5-0.1-0.9-0.2-1.4-0.2c-1.8,0-4-0.2-4.3-2.2c-0.3-1.8,0.7-3.7,2.5-4.7
		c1.1-0.7,2.2-1.3,3.3-1.9c3.8-2.3,6.3-5,6.8-10.1c0.4-3.5,0.2-6.6-0.3-9.9c-0.3-2.1-0.2-4.2,1.2-6c1.8-2.3,1.4-5.2,1.3-7.8
		c-0.5-8.4,0.1-16.9-2.3-25.1c-0.5-1.6-0.3-3.5-0.3-5.2c0-9.6-0.4-19.3,0.4-28.8c0.4-4.7-1.1-6.2-4.8-7.6c-3.9-1.4-4.9-4.9-4.5-8.5
		c0.3-3-0.2-5.5-2-7.9c-2.3-3.1-3.2-6.6-3.1-10.5c0.2-5,0-10,0-15.5c-3.1,1.6-3,4.2-4,6.1c-1.3,2.3-2.1,4.9-3.3,7.3
		c-2.5,5.1-3.2,10.4-2.1,16c1.2,6.2-1,12.3-0.7,18.5c0.2,5-0.2,10.1-0.4,15.1c-0.2,3.7,0.7,7.3,2.3,10.5c5,10,6.2,21.2,10.6,31.2
		c3,6.9-0.8,13.4,0.8,19.9c-3.6,3.4-1.6,8.1-2.7,12c-1.3,4.5-8.2,7.2-13.4,5.4c-1.1-0.4-2.2-0.7-3.2-1.2c-3.8-1.8-4.1-3.7-1.4-6.9
		c4.5-5.2,5-14.4,1.4-20.3c-1.2-1.9-2.1-3.9-1.7-6.3c0.6-3.5-1.7-6.3-2.5-9.4c-2-7.1-2.2-14.6-4.3-21.7c-1.7-5.5-3-11-4.3-16.6
		c-1-4-1.1-8.3-3-12.1c-0.6-1.3-1-2.9-2.7-2.9c-1.8,0-1.8,1.9-2.3,3.1c-1.5,4.5-1.6,9.2-1.3,13.9c0.1,1.7,0.9,2.9,1.9,4
		c1.2,1.4,2,2.9,1.9,4.8c-1,10.9,0.5,21.8,0.8,32.7c0,0.8,0.1,1.8-0.3,2.4c-1.1,1.9-0.6,3,1,4.5c2.8,2.7,2.3,4.5-1.6,5
		c-2.9,0.3-3.5,1.5-3.1,4.1c0.4,2.8,0.5,5.6,0.5,8.4c0,1.2,0.2,2.2,0.9,3.3c1.3,2,1.8,4,0,6.1c-1,1.2-0.8,2.8-0.2,4.4
		c1,2.6,1.9,5.3,2.6,8c1.7,6.3-0.5,8.6-6.9,9.6c-5.8,0.9-8.4-1.8-7.9-7.8c0.2-2.1,0-4.2,0-6.3c0-1.1,0-2.2-0.9-2.9
		c-4.7-3.6-4.5-8.9-4.7-14c-0.2-3.1-0.5-5.8-4.5-6.3c-1.6-0.2-2.6-1.4-1.9-3.4c3.6-11.3,2.1-22.3-1.4-33.5
		c-4.1-13-10.1-25.2-13.6-38.4c-0.2-0.9-0.7-1.5-1.6-1.6c-1.1,0-1.8,0.6-2.1,1.6c-0.2,0.5-0.2,1.2-0.2,1.7
		c0.3,8.5-0.9,16.7-2.2,25.1c-1.7,11.4,0.3,22.5,4.7,33.2c1.5,3.6,1.3,7.4-0.3,10.9c-0.8,1.7-0.9,2.7,0.4,4.3
		c2.5,2.9,2.6,8.7,0.5,11.8c-1.9,2.7-4,5.2-6.2,7.6c-2.5,2.6-7.7,3.3-11.3,1.2c-3.2-1.9-3.4-0.1-3.4,2.2c0,0.9,0.1,1.9,0.4,2.8
		c1.8,4.5,0.4,7.9-3.4,10.6c-6.7,4.9-13.5,9.3-22.5,8.2c-2.4-0.3-3.1-0.6-2.9-3.6c0.4-4.8,4.4-6.9,6.4-10.5c0.7-1.3,1.7-1.6-0.4-3
		c-1.9-1.2-1.2-4.3-0.9-6.5c0.6-3.3,0.2-3.7-3.1-2.6c-6.6,2.2-12.8,5.4-19.4,7.8c-4.7,1.7-9.7,1-14.6,0.5c-2.3-0.2-2.5-4.3-0.4-6.3
		c0.8-0.8,1.9-1.2,3.1-1.4c7-1.4,9.5-3.8,10.5-10.9c0.3-2.1,1.1-3.7,2.3-5.3c1.8-2.4,1.2-4.2-0.9-6c-3.2-2.7-3.4-6.5-0.3-9.5
		c2-1.9,2.7-4.1,1-6.2c-4.8-5.9-5.7-12.9-6.2-20c-1.1-13.2-2.8-26.3-2.6-39.6c0.1-4.7,0-9.4-2.1-13.8c-0.4-0.9-0.2-2.1-0.2-3.1
		c-0.1-8.6,2.1-16.9,2.9-25.4c0.3-2.8,0.4-4.7-3.3-5.5c-3.5-0.8-6.8-2.9-10.1-4.5c-2.7-1.3-3.6-5.8-2.1-10.2
		c2-5.8,3.5-11.9,7.7-16.6c1.4-1.6,0.5-3.1-0.1-4.6c-1.6-4.1-3.5-8.1-5-12.2c-1.6-4.3,4.1-11.6,8.5-11.1c0.8,0.1,1.9,0.5,2.1,1.1
		c0.8,2.6,4.6,3.2,4.3,6.7c-0.1,1,1.1,1.5,2.4,1.1c2.7-0.7,5.2-2,7.7-3.2c0.8-0.4,1.5-0.7,1.4-1.7c-0.1-0.9-1-0.9-1.6-1
		c-1.1-0.1-2.2-0.6-2.7-1.5c-4.8-8.6-6.8-17.6-3.9-27.2c1.7-5.5,8.9-8.7,15.5-7.4c4.4,0.9,7.5,5.5,7.7,11.2c0,1.6-0.3,3.1,1.2,4.5
		c1.3,1.2,0.4,3.2-0.1,4.7c-2,6.1,0,12.8,5.4,15.6c3.9,2.1,7.2,4.6,9.5,8.5c1.1,1.8,2.2,2.1,4,0.7c1.5-1.2,3.4-2.1,5-3.2
		c2.9-2,3.9-5.4,3.4-8.3c-0.6-3.3-1.3-7-4.8-9.3c-2.3-1.5-3.3-4-2.3-7.3c0.8-2.8,0.3-6,0.3-9.1c0.1-4.7,2-7,6.5-8.2
		c2.5-0.6,4.9-1.5,7.5-1.9c3.2-0.5,10.4,5.6,10.5,9c0.1,6.1,1.2,12.3-1,18.4c-1.7,4.5,2.9,11.2,9.2,12.2c4.6,0.7,9,2,13.2,4.2
		c3,1.6,5.2,0.2,4.8-3.2c-0.4-4.6-1-9.3-4.6-12.8c-0.7-0.6-1.4-1.6-1-2.5c1.5-3.3,1.2-6.9,2.2-10.3c1.3-4.5,10.4-7.6,14.7-5.2
		c5.7,3.2,9.6,13.6,7.1,19.5c-0.7,1.6-2.6,2.5-2,4.9c1.1,4.3,2.4,5.3,7,5.6c7.5,0.4,14.7,1.9,19.5,8.3c3.5,4.7,4.8,10.5,6.3,16.1
		c1.3,5.3,0.8,10.9,3.3,16.3c1-3.8,2-7.6,2.9-11.5c1.3-5.7,2-11.5,3.9-17c2.5-7.5,9.2-11.7,15.5-15.5c3.2-1.9,5.9-4.9,10-5.4
		c1.6-0.2,1.8-5.7,0.1-7.2c-1.3-1.2-1.6-2.8-2.4-4.2c-0.3-0.6-0.5-1.8,0.1-1.9c3.4-0.8,2.1-3.5,2.4-5.4c1-7.9,5.3-12.5,11.9-12.5
		c5.8,0,10.3,4.3,10.9,10.2c0.3,3.1-0.7,6.4,1.4,9.5c0.8,1.2-0.3,3.4-1.6,4.7c-3.5,3.4-3.4,6,0.1,9c5.1,4.4,11.1,7.2,16.5,11.1
		c0.9,0.6,1.6,1.3,2.4,2c0.6,0.5,1.4,0.9,1.7-0.1c2.3-7.4,9.8-8.9,14.9-13c2.9-2.4,5.5-5.3,5.8-9.5c0.1-1.4-0.3-2.2-1.4-3
		c-3.2-2.5-3.5-4.7-1.1-7.7c1-1.2,0.7-2.4,0.7-3.7c0.2-6.6,4.6-11.1,10.9-10.9c5.9,0.1,11.4,5.7,11.1,11.6
		c-0.3,5.5-1.1,10.9-2.4,16.2c0,0.1-0.1,0.2-0.1,0.3c-0.2,1.7-3.5,2.6-2,4.3c2.3,2.5,3.6,6.5,7.6,6.9c6,0.6,8.7,5,11.6,9.2
		c2.2,3.3,2.3,3.4,4.2-0.3c2.8-5.5,6.3-10.4,11.9-13.3c2.8-1.5,5.7-2.7,8.8-3.1c2.3-0.3,2.4-1.5,2.4-3.4c0-4.7-1.9-8.8-3.3-13.1
		c-0.7-2.1-0.9-4,0.2-6c1.1-2,0.3-4.4,0.3-6.6c0.1-6,6.1-10.4,11.9-8.5c5.7,1.8,8,5.2,7.8,11.3c-0.1,2.2-0.5,4.4,0.1,6.6
		c0.2,1,0.1,2.8-0.5,3.3c-3.2,2.7-1.6,6.3-2,9.5c-0.2,1.7,1.1,2.3,2.3,2.6c1.5,0.4,3,0.6,4.5,0.5c4.4-0.5,7.3,1.1,8.3,5.5
		c0.5,2.5,1.9,2.2,3.6,1.4c4.1-2,4.4-2.8,2.9-6.8c-2-5.5-2.5-11,0.1-16.4c2.1-4.3,6.4-6,11.3-4.9c3.5,0.8,5.7,3.8,6,8.4
		c0.1,1.1,0.5,1.9,1.2,2.8c1.5,1.6,0.2,3.3-0.7,4.4c-2.2,2.7-1.4,5,0,7.7c1.8,3.7,4.1,6.2,8.3,7.6c7,2.5,9.4,9,11.2,15.5
		c4.3,15.5,3.8,31-0.2,46.4c-0.7,2.5-1.3,6-5.4,5.8c-0.8,0-1.2,0.5-1.3,1.3c-0.4,2.5-1.2,5.1-1.2,7.6c0.2,13.1-1.7,26.2-1.3,39.4
		c0.4,12,1.4,24,3.3,35.9c0.2,1.6,1,3.1,1.7,4.5c2.2,5,0.4,9.6-1.5,14.1c-1.2,2.7-4.7,3.2-7.5,1.1c-3.5-2.5-6-5.8-7.9-9.6
		c-0.9-1.8-1.1-3.7-4.5-1.3c-6.4,4.5-13.8,8-22.2,6.8c-3-0.4-4.5,0.1-5.3,3.6c-1.6,6.9-6.4,9.1-13.3,7c-2.3-0.7-3.4-3.9-2-6.5
		c1.1-2,3.2-4.3,1.4-6.3c-1.5-1.7-4.2-0.5-6.3-0.1c-3,0.5-5.8,1.5-8.6,2.7c-4.6,2-9,0.9-13.1-1.3c-2.6-1.4-2.6-3.4-0.2-5.3
		c2.3-1.9,5.1-3,8.1-2.9c3.6,0,4.8-1.6,5-5.1c0.6-15.2-0.1-30.2-2.8-45.2c-1.2-6.8-0.7-13.8-2.5-20.5c-1.9-7.4-1.3-14.9-1.7-22.3
		c-0.2-4.2,0.2-8.4-0.9-12.6c-0.5-2.1-0.1-4.1,0.9-6.1c0.8-1.5,0.5-2.6-1.8-2.5c-3.6,0.2-7.3,0.1-10.9,0c-1.8,0-2.5,0.6-2.6,2.4
		c-0.2,6.8-0.7,13.6-0.7,20.4c0,13.1,0.3,26.5-3.2,39.1c-3,10.6-3.7,21.6-7.6,32c-1.6,4.3-1,9.5-1.4,14.3
		c-0.4,6.1-0.7,12.2-1.1,18.2c0,0.5,0.1,1.1-0.2,1.4c-3.3,3.9,0.2,5.6,2.6,7.3c2.6,1.9,5.6,2.8,8.9,2.8c1.6,0,3.5-0.3,3.9,2
		c0.3,2-0.9,3.2-2.5,4.2c-4.3,2.4-8.8,2.3-13.3,1.3c-3.3-0.7-6.5-0.9-9.8-0.6c-3.2,0.3-6.2-0.7-9.3-1.2c-1.2-0.2-1.5-1-1.4-2
		c1.8-12.4,2.2-24.9,4.3-37.2c0.8-4.4,0.2-9.1,0.2-13.7c0-0.6,0.1-1.6-0.9-1.5c-0.8,0-1.1,0.9-1.2,1.5c-1.3,5.8-3.1,11.6-3.8,17.5
		c-1.7,13.9-5.1,27.3-8.4,40.9c-0.4,1.6-1,3.2-0.1,4.8c1.9,3.3,1.3,6.8,1.2,10.3c0,1.6-0.8,3-2.1,3.3c-2.9,0.5-6,1-9,0.7
		c-2.3-0.2-4.1-1.9-4.1-4.9c0-5.4,0.8-10.9-1.8-16.2c-0.7-1.5,0.3-3.7,0.3-5.5c0.5-22.5,4.3-44.5,8.3-66.5
		c1.9-10.6,3.3-21.3,4.9-31.9c0.2-1,0.4-2-0.6-3.5c-1.6,4.7-4.2,8.4-4.3,13.2c0,3.8-1.6,7.4-3.2,10.9c-0.8,0.1-0.8,0.7-0.6,1.2
		c-0.5,0.7-1,1.4-1.9,1.6c-0.6-0.1-1.2-0.2-1.5,0.5c-1.3,0.5-2.7,1.1-4.1,1.7c-0.8-0.3-1.4,0-1.7,0.8c-2,2-0.4,4.6-1.3,6.8
		c-1.8,4.4-1.8,8.8-0.9,13.4c-0.1,0.7-0.2,1.4-0.3,2c-1.1,0.6-1.1,1.5-0.7,2.6c-0.1,0.6-0.1,1.1-0.2,1.7c-1,1.4-1.8,2.9-1.1,4.7
		c-0.1,1.7-0.2,3.5-0.3,5.2c-0.8,1.3-1.9,2.5-0.9,4.2c0.1,1.2,0.1,2.4-0.5,3.4c-1,0.7-1,1.6-0.5,2.6c-0.1,1-0.2,2.1-0.3,3.1
		c-0.6,0.4-0.8,0.9-0.2,1.4c-0.1,0.5-0.1,0.9-0.2,1.4c-1.7,0.9-1.3,2.2-0.7,3.5c-0.1,1.4-0.3,2.9-0.4,4.3c-1.6,1.7-1.9,3.5-0.8,5.6
		c0.9,3.7-2,6.5-2.3,9.9c-0.7,0.9-0.2,1.2,0.7,1.4c0.2,1.3,0.3,2.5,0.5,3.8c-0.4,0.8-0.2,1.4,0.6,1.8c0.1,0.5,0.2,0.9,0.3,1.4
		c-0.8,1.1-0.6,1.8,0.7,2.1c0.6,1.1,1.6,2.1,1.5,3.5c-0.7,0.7-0.7,1.4,0,2.1c-0.1,0.5-0.2,0.9-0.3,1.3
		C730.7,516.1,730.5,516.8,730.8,517.7z M738.8,418.1c-0.5,0.1-1.2,0.3-0.8,1c0.3,0.5,0.7,0.2,1-0.2c2.2-0.4,4.3-3.2,4.1-5.6
		c-0.1-0.7-0.1-1.5-0.9-1.7c-0.9-0.2-1.5,0.5-1.8,1.3C739.9,414.6,739.4,416.3,738.8,418.1z M565.5,448.3c-0.3,0.5-0.3,1.1,0,1.6
		c-0.6,1.4-0.5,2.8,0.7,3.8c1.2,1,1.7,2.5,2.3,3.8c-0.2,1-0.5,1.9,0.3,2.8c3.2,13.5,3.2,27.5,7,40.9c1.2-2.1,4.8-3.1,3-5.9
		c-3-4.9-3-10.2-3.1-15.6c-0.2-7.1-0.4-14.3-1.8-21.3c-1.7-9.2-3.8-18.3-5.7-27.5c0.2-0.6,0-1.1-0.4-1.5c-0.2-1.2-0.4-2.4-0.6-3.5
		c0.5-1.7-0.3-2.7-1.9-3.7c-0.2,1.5-0.7,2.6,0,3.8c0,0.7-0.1,1.4-0.1,2c-0.6,0.9-0.5,1.8-0.2,2.8c0,4.9,0,9.9,0,14.8
		c-0.4,0.5-0.4,1,0.2,1.4C565.3,447.4,565.4,447.8,565.5,448.3z M864.3,420.2c0-8.4-1.3-16.6-2.6-24.8c-0.3-2.2-0.3-4.8-2.6-6.3
		c-1.3-0.9-2.8-1.6-3.3,1c-1.6,9-3.2,18-2.1,27.2c1.3,11.3,2.7,22.5,2.1,33.9c-0.3,5.5,0,11-0.5,16.4c-0.1,1.6-0.3,3.8,2.2,3.5
		c4.7-0.6,8.6-7,7.3-11.4c-0.2-0.9-0.3-1.8-0.3-2.8C864.9,444.7,863.4,432.4,864.3,420.2z M708.1,470.5c0,4,0,8,0,12
		c0,1.1-0.2,2.7,1.1,2.9c1.1,0.2,1.5-1.3,2-2.2c4.5-9.4,5.5-19.7,5.8-29.8c0.3-10.7-1.5-21.5-2.4-32.2c-0.1-0.8,0-1.8-1.1-1.9
		c-1.4-0.1-1.2,1.2-1.4,2c-1.1,6-2.4,12-3.2,18c-0.7,5.3-1.6,10.7-1.2,16C708,460.5,707.8,465.5,708.1,470.5z M880.8,412
		c-0.3,0.6-0.7,1-0.7,1.4c-2.1,12.1,0.2,24,0.8,36c0.1,1.4-0.1,4.1,1.8,4c1.8-0.1,1.6-2.6,1.6-4.2c0.1-10.6,0.1-21.3-1.8-31.9
		C882.2,415.7,882.3,413.8,880.8,412z M691.1,386.3c0-0.5,0-0.9,0-1.4c0-1.6,0-3.9-2-3.7c-1.2,0.1-1.9,2.4-1.8,4.1
		c0,0.7,0.3,1.4,0.5,2c0.2,0.8,0.6,1.7,0,2.4c-3,3.6-1.2,7,0.2,10.5c0.4,0.9-0.1,2.6,1.3,2.5c1.4-0.1,1.3-1.7,1.5-2.8
		C692,395.3,692,390.8,691.1,386.3z M566.9,365.1c0,0,0.1,0,0.1,0c0-0.4,0.1-0.7,0.1-1c0-1.5-0.2-3.2-1.6-3.6
		c-1.4-0.4-2.2,1.3-2.6,2.4c-1.7,4.8-1.8,9.5,0.9,14.1c0.4,0.6,0.9,1.2,1.7,1c0.9-0.2,0.7-1,0.8-1.7
		C566.5,372.5,566.7,368.8,566.9,365.1z M661.5,372.4c0.3,0,0.6-0.1,1-0.1c1.8-6.9,6-13.8-1-21.1
		C661.5,358.8,661.5,365.6,661.5,372.4z M865.1,310.8c0.3,1-0.7,2.8,1.4,2.9c1.2,0.1,2.3-0.8,2.1-1.9c-0.3-1.3-0.6-3.2-2.5-3.3
		C864.7,308.6,865.3,310,865.1,310.8z M686.7,409.1c-0.6-0.9,0.2-2.8-1.8-2.8c-0.9,0-1.2,0.9-1,1.5c0.5,1.1,0.4,2.8,1.8,3.1
		C686.7,411.2,686.6,410,686.7,409.1z M785.5,487.8c-0.5,0.4-0.9,0.6-1,1c-0.2,0.4-0.1,1,0.5,0.8c0.4-0.1,0.7-0.5,0.9-0.8
		C786,488.6,785.7,488.3,785.5,487.8z"/>
</g>
</svg>
